# xmcd
#
# Track frame offsets: 
#        150
#        12195
#        28179
#        51872
#        68339
#        91547
#        107895
#        126286
#        142227
#        160327
#        184691
#        202465
#        220028
#        236606
#        252745
#        265855
#        289883
#
# Disc length: 4214 seconds
#
# Revision: 0
# Processed by: cddbd v1.5.2PL0 Copyright (c) Steve Scherf et al.
# Submitted via: ExactAudioCopy v1.0b4
#
DISCID=03107411
DTITLE=Various Artist - St. Louis Blues Society presents 17 In 17
DYEAR=2018
DGENRE=Blues
TTITLE0=Devil's Elbow - Got Conviction
TTITLE1=Marcell Strong and the Apostles - I Got To Find My Baby
TTITLE2=Alonzo Townsend - A Letter To My City
TTITLE3=Kim Massie - Little Girl Lost
TTITLE4=Chase Garrett - Sailor Man
TTITLE5=Teec'a Easby - How Do You Like Your Blues?
TTITLE6=Brian Owens - Lord Knows (Ain't Personal)
TTITLE7=Nick Pence and Joey Glynn - When A Fellow Is Feelin' Low
TTITLE8=Charisse 'Swan' Sauls - Mistress
TTITLE9=Brother Jefferson Band - Scars
TTITLE10=Matt 'The Rattlesnake' Lesch - Rattlin'
TTITLE11=Eastsiders Review Band - What Is Love?
TTITLE12=Marty Abdullah - You Done Me Wrong
TTITLE13=Jason David Cooper - A Quiet Man's Dream
TTITLE14=Annie and The Fur Trappers - You Break It, You Buy It
TTITLE15=Kyle Yardley - Little Girl
TTITLE16=Melissa Neels Band - Cold As Ice
EXTD=
EXTT0=
EXTT1=
EXTT2=
EXTT3=
EXTT4=
EXTT5=
EXTT6=
EXTT7=
EXTT8=
EXTT9=
EXTT10=
EXTT11=
EXTT12=
EXTT13=
EXTT14=
EXTT15=
EXTT16=
PLAYORDER=
